<svg xmlns="http://www.w3.org/2000/svg" width="1024" height="1024">
  <title>pen-svg file</title>
  <desc>code generated svg file</desc>
  <g id="g1" transform="scale(1,1) translate(0,0)">
    <path transform="scale(2 2) translate(140 400)" fill="#ff0000" stroke="#000000" stroke-width="1" d="M0 0 0 -4 -3.46 -6 0 -8 0 -12 -3.46 -14 -6.92 -12 -6.92 -16 -10.379999999999999 -18 -6.919999999999999 -20 -6.919999999999999 -24 -3.459999999999999 -22 8.881784197001252e-16 -24 8.881784197001252e-16 -28 -3.459999999999999 -30 8.881784197001252e-16 -32 8.881784197001252e-16 -36 -3.459999999999999 -38 -6.919999999999999 -36 -6.919999999999999 -40 -10.379999999999999 -42 -13.84 -40 -13.84 -36 -17.3 -38 -20.76 -36 -20.76 -40 -24.220000000000002 -42 -20.76 -44 -20.76 -48 -24.220000000000002 -50 -27.680000000000003 -48 -27.680000000000003 -52 -31.140000000000004 -54 -27.680000000000003 -56 -27.680000000000003 -60 -24.220000000000002 -58 -20.76 -60 -20.76 -64 -24.220000000000002 -66 -20.76 -68 -20.76 -72 -17.3 -70 -13.84 -72 -13.84 -68 -10.379999999999999 -66 -6.919999999999999 -68 -6.919999999999999 -72 -3.459999999999999 -70 8.881784197001252e-16 -72 8.881784197001252e-16 -76 -3.459999999999999 -78 8.881784197001252e-16 -80 8.881784197001252e-16 -84 -3.459999999999999 -86 -6.919999999999999 -84 -6.919999999999999 -88 -10.379999999999999 -90 -6.919999999999999 -92 -6.919999999999999 -96 -3.459999999999999 -94 8.881784197001252e-16 -96 8.881784197001252e-16 -100 -3.459999999999999 -102 8.881784197001252e-16 -104 8.881784197001252e-16 -108 -3.459999999999999 -110 -6.919999999999999 -108 -6.919999999999999 -112 -10.379999999999999 -114 -13.84 -112 -13.84 -108 -17.3 -110 -20.76 -108 -20.76 -112 -24.220000000000002 -114 -20.76 -116 -20.76 -120 -24.220000000000002 -122 -27.680000000000003 -120 -27.680000000000003 -124 -31.140000000000004 -126 -34.6 -124 -34.6 -120 -38.06 -122 -41.52 -120 -41.52 -116 -38.06 -114 -41.52 -112 -41.52 -108 -44.980000000000004 -110 -48.440000000000005 -108 -48.440000000000005 -112 -51.900000000000006 -114 -55.36000000000001 -112 -55.36000000000001 -108 -58.82000000000001 -110 -62.28000000000001 -108 -62.28000000000001 -112 -65.74000000000001 -114 -62.28000000000001 -116 -62.28000000000001 -120 -65.74000000000001 -122 -69.2 -120 -69.2 -124 -72.66 -126 -69.2 -128 -69.2 -132 -65.74000000000001 -130 -62.28000000000001 -132 -62.28000000000001 -136 -65.74000000000001 -138 -62.28000000000001 -140 -62.28000000000001 -144 -65.74000000000001 -146 -69.2 -144 -69.2 -148 -72.66 -150 -76.11999999999999 -148 -76.11999999999999 -144 -79.57999999999998 -146 -83.03999999999998 -144 -83.03999999999998 -148 -86.49999999999997 -150 -83.03999999999998 -152 -83.03999999999998 -156 -86.49999999999997 -158 -89.95999999999997 -156 -89.95999999999997 -160 -93.41999999999996 -162 -89.95999999999997 -164 -89.95999999999997 -168 -86.49999999999997 -166 -83.03999999999998 -168 -83.03999999999998 -172 -86.49999999999997 -174 -83.03999999999998 -176 -83.03999999999998 -180 -79.57999999999998 -178 -76.11999999999999 -180 -76.11999999999999 -176 -72.66 -174 -69.2 -176 -69.2 -180 -65.74000000000001 -178 -62.28000000000001 -180 -62.28000000000001 -184 -65.74000000000001 -186 -62.28000000000001 -188 -62.28000000000001 -192 -65.74000000000001 -194 -69.2 -192 -69.2 -196 -72.66 -198 -69.2 -200 -69.2 -204 -65.74000000000001 -202 -62.28000000000001 -204 -62.28000000000001 -208 -65.74000000000001 -210 -62.28000000000001 -212 -62.28000000000001 -216 -58.82000000000001 -214 -55.36000000000001 -216 -55.36000000000001 -212 -51.900000000000006 -210 -48.440000000000005 -212 -48.440000000000005 -216 -44.980000000000004 -214 -41.52 -216 -41.52 -212 -38.06 -210 -41.52 -208 -41.52 -204 -38.06 -202 -34.6 -204 -34.6 -200 -31.14 -198 -27.68 -200 -27.68 -204 -24.22 -202 -20.759999999999998 -204 -20.759999999999998 -208 -24.22 -210 -20.759999999999998 -212 -20.759999999999998 -216 -17.299999999999997 -214 -13.839999999999996 -216 -13.839999999999996 -212 -10.379999999999995 -210 -6.9199999999999955 -212 -6.9199999999999955 -216 -3.4599999999999955 -214 4.440892098500626e-15 -216 4.440892098500626e-15 -220 -3.4599999999999955 -222 4.440892098500626e-15 -224 4.440892098500626e-15 -228 -3.4599999999999955 -230 -6.9199999999999955 -228 -6.9199999999999955 -232 -10.379999999999995 -234 -6.9199999999999955 -236 -6.9199999999999955 -240 -3.4599999999999955 -238 4.440892098500626e-15 -240 4.440892098500626e-15 -244 -3.4599999999999955 -246 4.440892098500626e-15 -248 4.440892098500626e-15 -252 -3.4599999999999955 -254 -6.9199999999999955 -252 -6.9199999999999955 -256 -10.379999999999995 -258 -13.839999999999996 -256 -13.839999999999996 -252 -17.299999999999997 -254 -20.759999999999998 -252 -20.759999999999998 -256 -24.22 -258 -20.759999999999998 -260 -20.759999999999998 -264 -24.22 -266 -27.68 -264 -27.68 -268 -31.14 -270 -27.68 -272 -27.68 -276 -24.22 -274 -20.759999999999998 -276 -20.759999999999998 -280 -24.22 -282 -20.759999999999998 -284 -20.759999999999998 -288 -17.299999999999997 -286 -13.839999999999996 -288 -13.839999999999996 -284 -10.379999999999995 -282 -6.9199999999999955 -284 -6.9199999999999955 -288 -3.4599999999999955 -286 4.440892098500626e-15 -288 4.440892098500626e-15 -292 -3.4599999999999955 -294 4.440892098500626e-15 -296 4.440892098500626e-15 -300 -3.4599999999999955 -302 -6.9199999999999955 -300 -6.9199999999999955 -304 -10.379999999999995 -306 -6.9199999999999955 -308 -6.9199999999999955 -312 -3.4599999999999955 -310 4.440892098500626e-15 -312 4.440892098500626e-15 -316 -3.4599999999999955 -318 4.440892098500626e-15 -320 4.440892098500626e-15 -324 3.4600000000000044 -322 6.920000000000004 -324 6.920000000000004 -320 10.380000000000004 -318 13.840000000000003 -320 13.840000000000003 -324 17.300000000000004 -322 20.760000000000005 -324 20.760000000000005 -320 24.220000000000006 -318 20.760000000000005 -316 20.760000000000005 -312 24.220000000000006 -310 27.680000000000007 -312 27.680000000000007 -308 31.140000000000008 -306 34.60000000000001 -308 34.60000000000001 -312 38.06000000000001 -310 41.52000000000001 -312 41.52000000000001 -316 38.06000000000001 -318 41.52000000000001 -320 41.52000000000001 -324 44.98000000000001 -322 48.44000000000001 -324 48.44000000000001 -320 51.90000000000001 -318 55.360000000000014 -320 55.360000000000014 -324 58.820000000000014 -322 62.280000000000015 -324 62.280000000000015 -320 65.74000000000001 -318 62.28000000000001 -316 62.28000000000001 -312 65.74000000000001 -310 69.2 -312 69.2 -308 72.66 -306 69.2 -304 69.2 -300 65.74000000000001 -302 62.28000000000001 -300 62.28000000000001 -296 65.74000000000001 -294 62.28000000000001 -292 62.28000000000001 -288 65.74000000000001 -286 69.2 -288 69.2 -284 72.66 -282 76.11999999999999 -284 76.11999999999999 -288 79.57999999999998 -286 83.03999999999998 -288 83.03999999999998 -284 86.49999999999997 -282 83.03999999999998 -280 83.03999999999998 -276 86.49999999999997 -274 89.95999999999997 -276 89.95999999999997 -272 93.41999999999996 -270 96.87999999999995 -272 96.87999999999995 -276 100.33999999999995 -274 103.79999999999994 -276 103.79999999999994 -280 100.33999999999995 -282 103.79999999999994 -284 103.79999999999994 -288 107.25999999999993 -286 110.71999999999993 -288 110.71999999999993 -284 114.17999999999992 -282 117.63999999999992 -284 117.63999999999992 -288 121.09999999999991 -286 124.5599999999999 -288 124.5599999999999 -292 121.09999999999991 -294 124.5599999999999 -296 124.5599999999999 -300 121.09999999999991 -302 117.63999999999992 -300 117.63999999999992 -304 114.17999999999992 -306 117.63999999999992 -308 117.63999999999992 -312 121.09999999999991 -310 124.5599999999999 -312 124.5599999999999 -316 121.09999999999991 -318 124.5599999999999 -320 124.5599999999999 -324 128.0199999999999 -322 131.4799999999999 -324 131.4799999999999 -320 134.9399999999999 -318 138.39999999999992 -320 138.39999999999992 -324 141.85999999999993 -322 145.31999999999994 -324 145.31999999999994 -320 148.77999999999994 -318 145.31999999999994 -316 145.31999999999994 -312 148.77999999999994 -310 152.23999999999995 -312 152.23999999999995 -308 155.69999999999996 -306 159.15999999999997 -308 159.15999999999997 -312 162.61999999999998 -310 166.07999999999998 -312 166.07999999999998 -316 162.61999999999998 -318 166.07999999999998 -320 166.07999999999998 -324 169.54 -322 173 -324 173 -320 176.46 -318 179.92000000000002 -320 179.92000000000002 -324 183.38000000000002 -322 186.84000000000003 -324 186.84000000000003 -320 190.30000000000004 -318 186.84000000000003 -316 186.84000000000003 -312 190.30000000000004 -310 193.76000000000005 -312 193.76000000000005 -308 197.22000000000006 -306 193.76000000000005 -304 193.76000000000005 -300 190.30000000000004 -302 186.84000000000003 -300 186.84000000000003 -296 190.30000000000004 -294 186.84000000000003 -292 186.84000000000003 -288 190.30000000000004 -286 193.76000000000005 -288 193.76000000000005 -284 197.22000000000006 -282 200.68000000000006 -284 200.68000000000006 -288 204.14000000000007 -286 207.60000000000008 -288 207.60000000000008 -284 211.0600000000001 -282 207.60000000000008 -280 207.60000000000008 -276 211.0600000000001 -274 214.5200000000001 -276 214.5200000000001 -272 217.9800000000001 -270 214.5200000000001 -268 214.5200000000001 -264 211.0600000000001 -266 207.60000000000008 -264 207.60000000000008 -260 211.0600000000001 -258 207.60000000000008 -256 207.60000000000008 -252 204.14000000000007 -254 200.68000000000006 -252 200.68000000000006 -256 197.22000000000006 -258 193.76000000000005 -256 193.76000000000005 -252 190.30000000000004 -254 186.84000000000003 -252 186.84000000000003 -248 190.30000000000004 -246 186.84000000000003 -244 186.84000000000003 -240 190.30000000000004 -238 193.76000000000005 -240 193.76000000000005 -236 197.22000000000006 -234 193.76000000000005 -232 193.76000000000005 -228 190.30000000000004 -230 186.84000000000003 -228 186.84000000000003 -224 190.30000000000004 -222 186.84000000000003 -220 186.84000000000003 -216 190.30000000000004 -214 193.76000000000005 -216 193.76000000000005 -212 197.22000000000006 -210 200.68000000000006 -212 200.68000000000006 -216 204.14000000000007 -214 207.60000000000008 -216 207.60000000000008 -212 211.0600000000001 -210 207.60000000000008 -208 207.60000000000008 -204 211.0600000000001 -202 214.5200000000001 -204 214.5200000000001 -200 217.9800000000001 -198 221.4400000000001 -200 221.4400000000001 -204 224.90000000000012 -202 228.36000000000013 -204 228.36000000000013 -208 224.90000000000012 -210 228.36000000000013 -212 228.36000000000013 -216 231.82000000000014 -214 235.28000000000014 -216 235.28000000000014 -212 238.74000000000015 -210 242.20000000000016 -212 242.20000000000016 -216 245.66000000000017 -214 249.12000000000018 -216 249.12000000000018 -212 252.58000000000018 -210 249.12000000000018 -208 249.12000000000018 -204 252.58000000000018 -202 256.0400000000002 -204 256.0400000000002 -200 259.50000000000017 -198 256.0400000000002 -196 256.0400000000002 -192 252.58000000000018 -194 249.12000000000018 -192 249.12000000000018 -188 252.58000000000018 -186 249.12000000000018 -184 249.12000000000018 -180 252.58000000000018 -178 256.0400000000002 -180 256.0400000000002 -176 259.50000000000017 -174 262.96000000000015 -176 262.96000000000015 -180 266.42000000000013 -178 269.8800000000001 -180 269.8800000000001 -176 273.3400000000001 -174 269.8800000000001 -172 269.8800000000001 -168 273.3400000000001 -166 276.80000000000007 -168 276.80000000000007 -164 280.26000000000005 -162 276.80000000000007 -160 276.80000000000007 -156 273.3400000000001 -158 269.8800000000001 -156 269.8800000000001 -152 273.3400000000001 -150 269.8800000000001 -148 269.8800000000001 -144 266.42000000000013 -146 262.96000000000015 -144 262.96000000000015 -148 259.50000000000017 -150 256.0400000000002 -148 256.0400000000002 -144 252.58000000000018 -146 249.12000000000018 -144 249.12000000000018 -140 252.58000000000018 -138 249.12000000000018 -136 249.12000000000018 -132 252.58000000000018 -130 256.0400000000002 -132 256.0400000000002 -128 259.50000000000017 -126 256.0400000000002 -124 256.0400000000002 -120 252.58000000000018 -122 249.12000000000018 -120 249.12000000000018 -116 252.58000000000018 -114 249.12000000000018 -112 249.12000000000018 -108 245.66000000000017 -110 242.20000000000016 -108 242.20000000000016 -112 238.74000000000015 -114 235.28000000000014 -112 235.28000000000014 -108 231.82000000000014 -110 228.36000000000013 -108 228.36000000000013 -112 224.90000000000012 -114 228.36000000000013 -116 228.36000000000013 -120 224.90000000000012 -122 221.4400000000001 -120 221.4400000000001 -124 217.9800000000001 -126 214.5200000000001 -124 214.5200000000001 -120 211.0600000000001 -122 207.60000000000008 -120 207.60000000000008 -116 211.0600000000001 -114 207.60000000000008 -112 207.60000000000008 -108 204.14000000000007 -110 200.68000000000006 -108 200.68000000000006 -112 197.22000000000006 -114 193.76000000000005 -112 193.76000000000005 -108 190.30000000000004 -110 186.84000000000003 -108 186.84000000000003 -104 190.30000000000004 -102 186.84000000000003 -100 186.84000000000003 -96 190.30000000000004 -94 193.76000000000005 -96 193.76000000000005 -92 197.22000000000006 -90 193.76000000000005 -88 193.76000000000005 -84 190.30000000000004 -86 186.84000000000003 -84 186.84000000000003 -80 190.30000000000004 -78 186.84000000000003 -76 186.84000000000003 -72 190.30000000000004 -70 193.76000000000005 -72 193.76000000000005 -68 197.22000000000006 -66 200.68000000000006 -68 200.68000000000006 -72 204.14000000000007 -70 207.60000000000008 -72 207.60000000000008 -68 211.0600000000001 -66 207.60000000000008 -64 207.60000000000008 -60 211.0600000000001 -58 214.5200000000001 -60 214.5200000000001 -56 217.9800000000001 -54 214.5200000000001 -52 214.5200000000001 -48 211.0600000000001 -50 207.60000000000008 -48 207.60000000000008 -44 211.0600000000001 -42 207.60000000000008 -40 207.60000000000008 -36 204.14000000000007 -38 200.68000000000006 -36 200.68000000000006 -40 197.22000000000006 -42 193.76000000000005 -40 193.76000000000005 -36 190.30000000000004 -38 186.84000000000003 -36 186.84000000000003 -32 190.30000000000004 -30 186.84000000000003 -28 186.84000000000003 -24 190.30000000000004 -22 193.76000000000005 -24 193.76000000000005 -20 197.22000000000006 -18 193.76000000000005 -16 193.76000000000005 -12 190.30000000000004 -14 186.84000000000003 -12 186.84000000000003 -8 190.30000000000004 -6 186.84000000000003 -4 186.84000000000003 0 183.38000000000002 -2 179.92000000000002 0 179.92000000000002 -4 176.46 -6 173 -4 173 0 169.54 -2 166.07999999999998 0 166.07999999999998 -4 162.61999999999998 -6 166.07999999999998 -8 166.07999999999998 -12 162.61999999999998 -14 159.15999999999997 -12 159.15999999999997 -16 155.69999999999996 -18 152.23999999999995 -16 152.23999999999995 -12 148.77999999999994 -14 145.31999999999994 -12 145.31999999999994 -8 148.77999999999994 -6 145.31999999999994 -4 145.31999999999994 0 141.85999999999993 -2 138.39999999999992 0 138.39999999999992 -4 134.9399999999999 -6 131.4799999999999 -4 131.4799999999999 0 128.0199999999999 -2 124.5599999999999 0 124.5599999999999 -4 121.09999999999991 -6 124.5599999999999 -8 124.5599999999999 -12 121.09999999999991 -14 117.63999999999992 -12 117.63999999999992 -16 114.17999999999992 -18 117.63999999999992 -20 117.63999999999992 -24 121.09999999999991 -22 124.5599999999999 -24 124.5599999999999 -28 121.09999999999991 -30 124.5599999999999 -32 124.5599999999999 -36 121.09999999999991 -38 117.63999999999992 -36 117.63999999999992 -40 114.17999999999992 -42 110.71999999999993 -40 110.71999999999993 -36 107.25999999999993 -38 103.79999999999994 -36 103.79999999999994 -40 100.33999999999995 -42 103.79999999999994 -44 103.79999999999994 -48 100.33999999999995 -50 96.87999999999995 -48 96.87999999999995 -52 93.41999999999996 -54 89.95999999999997 -52 89.95999999999997 -48 86.49999999999997 -50 83.03999999999998 -48 83.03999999999998 -44 86.49999999999997 -42 83.03999999999998 -40 83.03999999999998 -36 79.57999999999998 -38 76.11999999999999 -36 76.11999999999999 -40 72.66 -42 69.2 -40 69.2 -36 65.74000000000001 -38 62.28000000000001 -36 62.28000000000001 -32 65.74000000000001 -30 62.28000000000001 -28 62.28000000000001 -24 65.74000000000001 -22 69.2 -24 69.2 -20 72.66 -18 69.2 -16 69.2 -12 65.74000000000001 -14 62.28000000000001 -12 62.28000000000001 -8 65.74000000000001 -6 62.28000000000001 -4 62.28000000000001 0 58.82000000000001 -2 55.36000000000001 0 55.36000000000001 -4 51.900000000000006 -6 48.440000000000005 -4 48.440000000000005 0 44.980000000000004 -2 41.52 0 41.52 -4 38.06 -6 41.52 -8 41.52 -12 38.06 -14 34.6 -12 34.6 -16 31.14 -18 27.68 -16 27.68 -12 24.22 -14 20.759999999999998 -12 20.759999999999998 -8 24.22 -6 20.759999999999998 -4 20.759999999999998 0 17.299999999999997 -2 13.839999999999996 0 13.839999999999996 -4 10.379999999999995 -6 6.9199999999999955 -4 6.9199999999999955 0 3.4599999999999955 -2 -4.440892098500626e-15 0" />
  </g>
</svg>