<svg viewBox="0 0 550 550" xmlns="http://www.w3.org/2000/svg" width="550" height="550">
<desc>This file was code-generated.</desc>

    <style>
        rect.tileBack1 {
            stroke: none;
            fill: black;
        }

        rect.tileBack2 {
            stroke: none;
            fill: white;
        }

        rect.background {
            stroke: none;
            fill: white;
        }

        path.pie1 {
            stroke: none;
            stroke-width: 1;
            fill: white;
            stroke-linecap: butt;
        }

        path.pie2 {
            stroke: none;
            stroke-width: 1;
            fill: black;
            stroke-linecap: butt;
        }
    </style>
    <defs>
        <g id="base1">
            <rect width="200" height="200" class="tileBack1"/>
        </g>
        <g id="base2">
            <rect width="200" height="200" class="tileBack2"/>
        </g>

        <g id="tile1A">
            <use href="#base1"/>
            <path d="M200,100 A 100,100 0,0,0 100,200 L 200,200 Z" class="pie1"/>
            <path d="M0,100 A 100,100 0,0,0 100,0 L 0,0 Z" class="pie1"/>
        </g>
        <g id="tile2A">
            <use href="#base2"/>
            <path d="M200,100 A 100,100 0,0,0 100,200 L 200,200 Z" class="pie2"/>
            <path d="M0,100 A 100,100 0,0,0 100,0 L 0,0 Z" class="pie2"/>
        </g>
        <g id="tile1B">
            <use href="#tile2A" transform="rotate(90,100,100)"/>
        </g>
        <g id="tile2B">
            <use href="#tile1A" transform="rotate(90,100,100)"/>
        </g>
    </defs>
<rect id="background" fill="black" width="550" height="550" />
<g id="board" transform="translate(25,25) scale(0.25, 0.25)" >
	<use id="C0R0" href="#tile1B" transform="translate(0.00,0.00) rotate(0,100,100)" >
		<title>C0R0</title>
	</use>
	<use id="C0R1" href="#tile2A" transform="translate(0.00,200.00) rotate(0,100,100)" >
		<title>C0R1</title>
	</use>
	<use id="C0R2" href="#tile1A" transform="translate(0.00,400.00) rotate(0,100,100)" >
		<title>C0R2</title>
	</use>
	<use id="C0R3" href="#tile2B" transform="translate(0.00,600.00) rotate(0,100,100)" >
		<title>C0R3</title>
	</use>
	<use id="C0R4" href="#tile1A" transform="translate(0.00,800.00) rotate(0,100,100)" >
		<title>C0R4</title>
	</use>
	<use id="C0R5" href="#tile2A" transform="translate(0.00,1000.00) rotate(0,100,100)" >
		<title>C0R5</title>
	</use>
	<use id="C0R6" href="#tile1B" transform="translate(0.00,1200.00) rotate(0,100,100)" >
		<title>C0R6</title>
	</use>
	<use id="C0R7" href="#tile2A" transform="translate(0.00,1400.00) rotate(0,100,100)" >
		<title>C0R7</title>
	</use>
	<use id="C0R8" href="#tile1A" transform="translate(0.00,1600.00) rotate(0,100,100)" >
		<title>C0R8</title>
	</use>
	<use id="C0R9" href="#tile2B" transform="translate(0.00,1800.00) rotate(0,100,100)" >
		<title>C0R9</title>
	</use>
	<use id="C1R0" href="#tile2A" transform="translate(200.00,0.00) rotate(0,100,100)" >
		<title>C1R0</title>
	</use>
	<use id="C1R1" href="#tile1B" transform="translate(200.00,200.00) rotate(0,100,100)" >
		<title>C1R1</title>
	</use>
	<use id="C1R2" href="#tile2B" transform="translate(200.00,400.00) rotate(0,100,100)" >
		<title>C1R2</title>
	</use>
	<use id="C1R3" href="#tile1A" transform="translate(200.00,600.00) rotate(0,100,100)" >
		<title>C1R3</title>
	</use>
	<use id="C1R4" href="#tile2B" transform="translate(200.00,800.00) rotate(0,100,100)" >
		<title>C1R4</title>
	</use>
	<use id="C1R5" href="#tile1A" transform="translate(200.00,1000.00) rotate(0,100,100)" >
		<title>C1R5</title>
	</use>
	<use id="C1R6" href="#tile2A" transform="translate(200.00,1200.00) rotate(0,100,100)" >
		<title>C1R6</title>
	</use>
	<use id="C1R7" href="#tile1B" transform="translate(200.00,1400.00) rotate(0,100,100)" >
		<title>C1R7</title>
	</use>
	<use id="C1R8" href="#tile2B" transform="translate(200.00,1600.00) rotate(0,100,100)" >
		<title>C1R8</title>
	</use>
	<use id="C1R9" href="#tile1A" transform="translate(200.00,1800.00) rotate(0,100,100)" >
		<title>C1R9</title>
	</use>
	<use id="C2R0" href="#tile1B" transform="translate(400.00,0.00) rotate(0,100,100)" >
		<title>C2R0</title>
	</use>
	<use id="C2R1" href="#tile2A" transform="translate(400.00,200.00) rotate(0,100,100)" >
		<title>C2R1</title>
	</use>
	<use id="C2R2" href="#tile1B" transform="translate(400.00,400.00) rotate(0,100,100)" >
		<title>C2R2</title>
	</use>
	<use id="C2R3" href="#tile2B" transform="translate(400.00,600.00) rotate(0,100,100)" >
		<title>C2R3</title>
	</use>
	<use id="C2R4" href="#tile1B" transform="translate(400.00,800.00) rotate(0,100,100)" >
		<title>C2R4</title>
	</use>
	<use id="C2R5" href="#tile2B" transform="translate(400.00,1000.00) rotate(0,100,100)" >
		<title>C2R5</title>
	</use>
	<use id="C2R6" href="#tile1A" transform="translate(400.00,1200.00) rotate(0,100,100)" >
		<title>C2R6</title>
	</use>
	<use id="C2R7" href="#tile2B" transform="translate(400.00,1400.00) rotate(0,100,100)" >
		<title>C2R7</title>
	</use>
	<use id="C2R8" href="#tile1A" transform="translate(400.00,1600.00) rotate(0,100,100)" >
		<title>C2R8</title>
	</use>
	<use id="C2R9" href="#tile2B" transform="translate(400.00,1800.00) rotate(0,100,100)" >
		<title>C2R9</title>
	</use>
	<use id="C3R0" href="#tile2A" transform="translate(600.00,0.00) rotate(0,100,100)" >
		<title>C3R0</title>
	</use>
	<use id="C3R1" href="#tile1A" transform="translate(600.00,200.00) rotate(0,100,100)" >
		<title>C3R1</title>
	</use>
	<use id="C3R2" href="#tile2B" transform="translate(600.00,400.00) rotate(0,100,100)" >
		<title>C3R2</title>
	</use>
	<use id="C3R3" href="#tile1A" transform="translate(600.00,600.00) rotate(0,100,100)" >
		<title>C3R3</title>
	</use>
	<use id="C3R4" href="#tile2A" transform="translate(600.00,800.00) rotate(0,100,100)" >
		<title>C3R4</title>
	</use>
	<use id="C3R5" href="#tile1B" transform="translate(600.00,1000.00) rotate(0,100,100)" >
		<title>C3R5</title>
	</use>
	<use id="C3R6" href="#tile2B" transform="translate(600.00,1200.00) rotate(0,100,100)" >
		<title>C3R6</title>
	</use>
	<use id="C3R7" href="#tile1A" transform="translate(600.00,1400.00) rotate(0,100,100)" >
		<title>C3R7</title>
	</use>
	<use id="C3R8" href="#tile2A" transform="translate(600.00,1600.00) rotate(0,100,100)" >
		<title>C3R8</title>
	</use>
	<use id="C3R9" href="#tile1A" transform="translate(600.00,1800.00) rotate(0,100,100)" >
		<title>C3R9</title>
	</use>
	<use id="C4R0" href="#tile1B" transform="translate(800.00,0.00) rotate(0,100,100)" >
		<title>C4R0</title>
	</use>
	<use id="C4R1" href="#tile2A" transform="translate(800.00,200.00) rotate(0,100,100)" >
		<title>C4R1</title>
	</use>
	<use id="C4R2" href="#tile1A" transform="translate(800.00,400.00) rotate(0,100,100)" >
		<title>C4R2</title>
	</use>
	<use id="C4R3" href="#tile2A" transform="translate(800.00,600.00) rotate(0,100,100)" >
		<title>C4R3</title>
	</use>
	<use id="C4R4" href="#tile1B" transform="translate(800.00,800.00) rotate(0,100,100)" >
		<title>C4R4</title>
	</use>
	<use id="C4R5" href="#tile2B" transform="translate(800.00,1000.00) rotate(0,100,100)" >
		<title>C4R5</title>
	</use>
	<use id="C4R6" href="#tile1A" transform="translate(800.00,1200.00) rotate(0,100,100)" >
		<title>C4R6</title>
	</use>
	<use id="C4R7" href="#tile2B" transform="translate(800.00,1400.00) rotate(0,100,100)" >
		<title>C4R7</title>
	</use>
	<use id="C4R8" href="#tile1B" transform="translate(800.00,1600.00) rotate(0,100,100)" >
		<title>C4R8</title>
	</use>
	<use id="C4R9" href="#tile2B" transform="translate(800.00,1800.00) rotate(0,100,100)" >
		<title>C4R9</title>
	</use>
	<use id="C5R0" href="#tile2B" transform="translate(1000.00,0.00) rotate(0,100,100)" >
		<title>C5R0</title>
	</use>
	<use id="C5R1" href="#tile1B" transform="translate(1000.00,200.00) rotate(0,100,100)" >
		<title>C5R1</title>
	</use>
	<use id="C5R2" href="#tile2A" transform="translate(1000.00,400.00) rotate(0,100,100)" >
		<title>C5R2</title>
	</use>
	<use id="C5R3" href="#tile1B" transform="translate(1000.00,600.00) rotate(0,100,100)" >
		<title>C5R3</title>
	</use>
	<use id="C5R4" href="#tile2B" transform="translate(1000.00,800.00) rotate(0,100,100)" >
		<title>C5R4</title>
	</use>
	<use id="C5R5" href="#tile1A" transform="translate(1000.00,1000.00) rotate(0,100,100)" >
		<title>C5R5</title>
	</use>
	<use id="C5R6" href="#tile2B" transform="translate(1000.00,1200.00) rotate(0,100,100)" >
		<title>C5R6</title>
	</use>
	<use id="C5R7" href="#tile1A" transform="translate(1000.00,1400.00) rotate(0,100,100)" >
		<title>C5R7</title>
	</use>
	<use id="C5R8" href="#tile2B" transform="translate(1000.00,1600.00) rotate(0,100,100)" >
		<title>C5R8</title>
	</use>
	<use id="C5R9" href="#tile1A" transform="translate(1000.00,1800.00) rotate(0,100,100)" >
		<title>C5R9</title>
	</use>
	<use id="C6R0" href="#tile1A" transform="translate(1200.00,0.00) rotate(0,100,100)" >
		<title>C6R0</title>
	</use>
	<use id="C6R1" href="#tile2B" transform="translate(1200.00,200.00) rotate(0,100,100)" >
		<title>C6R1</title>
	</use>
	<use id="C6R2" href="#tile1A" transform="translate(1200.00,400.00) rotate(0,100,100)" >
		<title>C6R2</title>
	</use>
	<use id="C6R3" href="#tile2A" transform="translate(1200.00,600.00) rotate(0,100,100)" >
		<title>C6R3</title>
	</use>
	<use id="C6R4" href="#tile1A" transform="translate(1200.00,800.00) rotate(0,100,100)" >
		<title>C6R4</title>
	</use>
	<use id="C6R5" href="#tile2A" transform="translate(1200.00,1000.00) rotate(0,100,100)" >
		<title>C6R5</title>
	</use>
	<use id="C6R6" href="#tile1A" transform="translate(1200.00,1200.00) rotate(0,100,100)" >
		<title>C6R6</title>
	</use>
	<use id="C6R7" href="#tile2A" transform="translate(1200.00,1400.00) rotate(0,100,100)" >
		<title>C6R7</title>
	</use>
	<use id="C6R8" href="#tile1B" transform="translate(1200.00,1600.00) rotate(0,100,100)" >
		<title>C6R8</title>
	</use>
	<use id="C6R9" href="#tile2B" transform="translate(1200.00,1800.00) rotate(0,100,100)" >
		<title>C6R9</title>
	</use>
	<use id="C7R0" href="#tile2B" transform="translate(1400.00,0.00) rotate(0,100,100)" >
		<title>C7R0</title>
	</use>
	<use id="C7R1" href="#tile1A" transform="translate(1400.00,200.00) rotate(0,100,100)" >
		<title>C7R1</title>
	</use>
	<use id="C7R2" href="#tile2B" transform="translate(1400.00,400.00) rotate(0,100,100)" >
		<title>C7R2</title>
	</use>
	<use id="C7R3" href="#tile1B" transform="translate(1400.00,600.00) rotate(0,100,100)" >
		<title>C7R3</title>
	</use>
	<use id="C7R4" href="#tile2B" transform="translate(1400.00,800.00) rotate(0,100,100)" >
		<title>C7R4</title>
	</use>
	<use id="C7R5" href="#tile1B" transform="translate(1400.00,1000.00) rotate(0,100,100)" >
		<title>C7R5</title>
	</use>
	<use id="C7R6" href="#tile2A" transform="translate(1400.00,1200.00) rotate(0,100,100)" >
		<title>C7R6</title>
	</use>
	<use id="C7R7" href="#tile1B" transform="translate(1400.00,1400.00) rotate(0,100,100)" >
		<title>C7R7</title>
	</use>
	<use id="C7R8" href="#tile2A" transform="translate(1400.00,1600.00) rotate(0,100,100)" >
		<title>C7R8</title>
	</use>
	<use id="C7R9" href="#tile1A" transform="translate(1400.00,1800.00) rotate(0,100,100)" >
		<title>C7R9</title>
	</use>
	<use id="C8R0" href="#tile1A" transform="translate(1600.00,0.00) rotate(0,100,100)" >
		<title>C8R0</title>
	</use>
	<use id="C8R1" href="#tile2A" transform="translate(1600.00,200.00) rotate(0,100,100)" >
		<title>C8R1</title>
	</use>
	<use id="C8R2" href="#tile1A" transform="translate(1600.00,400.00) rotate(0,100,100)" >
		<title>C8R2</title>
	</use>
	<use id="C8R3" href="#tile2B" transform="translate(1600.00,600.00) rotate(0,100,100)" >
		<title>C8R3</title>
	</use>
	<use id="C8R4" href="#tile1B" transform="translate(1600.00,800.00) rotate(0,100,100)" >
		<title>C8R4</title>
	</use>
	<use id="C8R5" href="#tile2B" transform="translate(1600.00,1000.00) rotate(0,100,100)" >
		<title>C8R5</title>
	</use>
	<use id="C8R6" href="#tile1A" transform="translate(1600.00,1200.00) rotate(0,100,100)" >
		<title>C8R6</title>
	</use>
	<use id="C8R7" href="#tile2A" transform="translate(1600.00,1400.00) rotate(0,100,100)" >
		<title>C8R7</title>
	</use>
	<use id="C8R8" href="#tile1A" transform="translate(1600.00,1600.00) rotate(0,100,100)" >
		<title>C8R8</title>
	</use>
	<use id="C8R9" href="#tile2B" transform="translate(1600.00,1800.00) rotate(0,100,100)" >
		<title>C8R9</title>
	</use>
	<use id="C9R0" href="#tile2B" transform="translate(1800.00,0.00) rotate(0,100,100)" >
		<title>C9R0</title>
	</use>
	<use id="C9R1" href="#tile1B" transform="translate(1800.00,200.00) rotate(0,100,100)" >
		<title>C9R1</title>
	</use>
	<use id="C9R2" href="#tile2A" transform="translate(1800.00,400.00) rotate(0,100,100)" >
		<title>C9R2</title>
	</use>
	<use id="C9R3" href="#tile1B" transform="translate(1800.00,600.00) rotate(0,100,100)" >
		<title>C9R3</title>
	</use>
	<use id="C9R4" href="#tile2A" transform="translate(1800.00,800.00) rotate(0,100,100)" >
		<title>C9R4</title>
	</use>
	<use id="C9R5" href="#tile1A" transform="translate(1800.00,1000.00) rotate(0,100,100)" >
		<title>C9R5</title>
	</use>
	<use id="C9R6" href="#tile2A" transform="translate(1800.00,1200.00) rotate(0,100,100)" >
		<title>C9R6</title>
	</use>
	<use id="C9R7" href="#tile1B" transform="translate(1800.00,1400.00) rotate(0,100,100)" >
		<title>C9R7</title>
	</use>
	<use id="C9R8" href="#tile2B" transform="translate(1800.00,1600.00) rotate(0,100,100)" >
		<title>C9R8</title>
	</use>
	<use id="C9R9" href="#tile1B" transform="translate(1800.00,1800.00) rotate(0,100,100)" >
		<title>C9R9</title>
	</use>
</g>
</svg>